<?xml version="1.0" encoding="iso-8859-1"?>
<!-- Generator: Adobe Illustrator 19.0.0, SVG Export Plug-In . SVG Version: 6.00 Build 0)  -->
<svg version="1.1" id="Layer_1" xmlns="http://www.w3.org/2000/svg" xmlns:xlink="http://www.w3.org/1999/xlink" x="0px" y="0px"
	 viewBox="0 0 511.999 511.999" style="enable-background:new 0 0 511.999 511.999;" xml:space="preserve">
<g>
	<circle style="fill:#CFF09E;" cx="92.904" cy="408.47" r="43.234"/>
	<circle style="fill:#CFF09E;" cx="404.092" cy="398.903" r="43.234"/>
	<path style="fill:#CFF09E;" d="M153.845,29.329v467.676h121.881V29.329H153.845z M214.785,451.704
		c-23.878,0-43.234-19.357-43.234-43.234c0-23.878,19.357-43.234,43.234-43.234s43.234,19.357,43.234,43.234
		C258.02,432.347,238.663,451.704,214.785,451.704z"/>
</g>
<g>
	<path style="fill:#507C5C;" d="M494.78,472.247l-23.375-127.109c-1.498-8.145-9.312-13.531-17.46-12.035
		c-8.145,1.498-13.533,9.315-12.035,17.46l0.891,4.846c-10.355-9.222-23.959-14.738-38.668-14.738c-3.528,0-7.088,0.325-10.58,0.969
		c-15.298,2.813-28.584,11.414-37.41,24.219c-1.378,2-2.606,4.071-3.714,6.191L293.034,49.077l90.376-16.62l42.766,232.556
		c1.498,8.145,9.315,13.536,17.46,12.035c8.145-1.498,13.533-9.315,12.035-17.46L410.192,12.286
		c-1.498-8.144-9.316-13.537-17.46-12.035L287.178,19.662c-2.75-3.255-6.857-5.328-11.453-5.328H153.844H31.964
		c-8.282,0-14.995,6.715-14.995,14.995v251.449c0,8.28,6.713,14.995,14.995,14.995s14.995-6.715,14.995-14.995V44.324h91.892
		v328.438c-10.664-13.69-27.287-22.522-45.945-22.522s-35.283,8.832-45.947,22.522v-4.998c0-8.28-6.713-14.995-14.995-14.995
		s-14.995,6.715-14.995,14.995v129.239c0,8.28,6.713,14.995,14.995,14.995h121.881h121.881c8.282,0,14.995-6.715,14.995-14.995
		V202.305l54.695,297.411c0.718,3.911,2.963,7.377,6.238,9.634c2.521,1.736,5.491,2.65,8.51,2.65c0.904,0,1.811-0.082,2.713-0.247
		l119.871-22.045C490.889,488.207,496.278,480.39,494.78,472.247z M92.904,380.23c15.572,0,28.24,12.668,28.24,28.24
		c0,15.572-12.668,28.241-28.24,28.241s-28.24-12.669-28.24-28.241S77.333,380.23,92.904,380.23z M46.959,444.178
		c10.664,13.69,27.287,22.522,45.947,22.522c18.658,0,35.281-8.832,45.945-22.522v37.83H46.959V444.178z M260.731,482.01h-91.892
		v-37.805c10.664,13.681,27.296,22.495,45.947,22.495s35.281-8.814,45.945-22.495V482.01z M186.546,408.471
		c0-15.572,12.669-28.241,28.24-28.241s28.24,12.669,28.24,28.241s-12.668,28.24-28.24,28.24S186.546,424.042,186.546,408.471z
		 M260.731,372.736c-10.664-13.681-27.295-22.495-45.945-22.495s-35.281,8.814-45.947,22.495V44.324h91.892V372.736z
		 M380.834,382.88c4.281-6.211,10.724-10.382,18.144-11.747c1.708-0.313,3.443-0.472,5.157-0.472c13.6,0,25.26,9.732,27.725,23.14
		c2.816,15.316-7.352,30.066-22.666,32.883c-1.708,0.313-3.441,0.472-5.155,0.472l0,0c-13.6,0-25.26-9.732-27.725-23.14
		C374.947,396.597,376.553,389.091,380.834,382.88z M372.197,479.545l-6.83-37.137c10.355,9.222,23.959,14.738,38.668,14.738l0,0
		c3.528,0,7.088-0.325,10.58-0.969c18.351-3.375,33.102-15.068,41.114-30.462l6.842,37.208L372.197,479.545z"/>
	<path style="fill:#507C5C;" d="M214.785,287.193c-8.282,0-14.995-6.715-14.995-14.995V86.123c0-8.28,6.713-14.995,14.995-14.995
		c8.282,0,14.995,6.715,14.995,14.995v186.075C229.78,280.478,223.067,287.193,214.785,287.193z"/>
</g>
<g>
</g>
<g>
</g>
<g>
</g>
<g>
</g>
<g>
</g>
<g>
</g>
<g>
</g>
<g>
</g>
<g>
</g>
<g>
</g>
<g>
</g>
<g>
</g>
<g>
</g>
<g>
</g>
<g>
</g>
</svg>
